<?xml version="1.0" standalone="no"?>
<!DOCTYPE svg PUBLIC "-//W3C//DTD SVG 20010904//EN"
 "http://www.w3.org/TR/2001/REC-SVG-20010904/DTD/svg10.dtd">
<svg version="1.0" xmlns="http://www.w3.org/2000/svg"
 width="835.000000pt" height="835.000000pt" viewBox="0 0 835.000000 835.000000"
 preserveAspectRatio="xMidYMid meet">

<g transform="translate(0.000000,835.000000) scale(0.100000,-0.100000)"
fill="#000000" stroke="none">
<path d="M816 6373 c-3 -10 -10 -25 -15 -33 -5 -8 -24 -53 -41 -100 -18 -47
-36 -93 -41 -102 -5 -10 -9 -28 -9 -41 0 -13 -3 -27 -7 -31 -11 -11 -15 -51
-16 -188 -1 -141 3 -187 15 -194 4 -3 8 -18 8 -34 0 -16 4 -31 9 -34 4 -3 11
-25 14 -49 5 -38 41 -139 68 -189 5 -10 9 -23 9 -30 0 -7 11 -35 25 -62 14
-27 25 -57 25 -66 0 -10 7 -23 15 -30 18 -15 75 -131 75 -153 0 -9 6 -20 14
-24 7 -4 26 -30 40 -58 30 -55 43 -76 97 -156 73 -108 159 -249 159 -259 0 -7
17 -28 38 -48 35 -35 85 -97 107 -133 24 -40 96 -129 105 -129 5 0 12 -9 15
-21 8 -24 89 -109 104 -109 25 0 10 79 -28 151 -21 41 -41 92 -45 114 -4 21
-16 51 -26 65 -10 15 -22 39 -26 54 -3 15 -17 50 -30 77 -13 27 -24 58 -24 68
0 11 -4 23 -10 26 -5 3 -10 14 -10 23 0 9 -6 28 -13 42 -7 14 -22 50 -32 80
-11 30 -22 60 -26 65 -4 6 -10 25 -14 43 -4 18 -13 45 -21 60 -8 15 -14 33
-14 40 0 12 -5 23 -28 69 -7 13 -12 32 -12 43 0 20 -17 63 -60 155 -10 22 -22
56 -26 75 -3 19 -10 41 -15 50 -4 8 -16 40 -25 70 -9 30 -20 60 -24 65 -4 6
-11 29 -15 52 -4 24 -11 45 -16 49 -5 3 -9 18 -9 34 0 16 -4 31 -9 34 -5 4
-12 24 -16 46 -4 22 -10 42 -15 45 -5 3 -11 23 -15 45 -4 22 -11 42 -16 46 -5
3 -9 16 -9 29 0 13 -4 26 -9 30 -6 3 -13 27 -17 53 -3 26 -10 52 -14 57 -4 6
-11 26 -15 45 -4 19 -11 41 -15 50 -5 8 -16 42 -25 75 -9 33 -20 68 -26 77 -5
10 -9 26 -9 37 0 48 -40 73 -54 34z m68 -236 c3 -15 11 -25 17 -22 6 4 7 -3 3
-21 -5 -18 -3 -25 4 -20 7 4 16 -10 23 -36 6 -24 26 -86 44 -138 32 -95 153
-470 161 -499 2 -9 -4 1 -14 21 -10 21 -21 41 -25 44 -8 8 4 -38 13 -51 12
-17 18 -52 11 -64 -4 -6 -21 18 -39 52 -18 34 -42 78 -54 97 -11 19 -30 52
-42 72 -113 199 -184 321 -213 363 l-33 51 9 90 c10 92 47 197 61 174 5 -8 10
-6 14 7 6 14 12 6 30 -37 12 -30 26 -68 30 -83z"/>
<path d="M333 5343 c-15 -22 -19 -55 -21 -181 -2 -101 0 -158 7 -165 6 -6 11
-17 11 -25 0 -23 31 -83 71 -137 34 -47 68 -80 287 -283 46 -42 110 -103 143
-134 33 -32 62 -58 64 -58 2 0 19 -14 37 -31 18 -17 56 -45 83 -63 45 -30 135
-107 280 -240 83 -77 155 -136 165 -136 17 0 11 26 -10 45 -11 10 -20 22 -20
27 0 4 -28 45 -63 91 -34 45 -70 94 -79 108 -9 15 -41 53 -70 85 -52 58 -71
84 -85 114 -4 8 -12 20 -17 26 -6 6 -29 34 -51 63 -22 28 -62 80 -90 116 -27
35 -61 80 -75 100 -14 20 -45 62 -70 94 -25 32 -65 86 -90 121 -25 34 -60 79
-77 99 -18 21 -30 41 -27 44 4 3 -6 16 -20 29 -28 24 -69 79 -160 214 -30 44
-66 85 -80 92 -23 10 -28 9 -43 -15z m248 -340 c13 -16 12 -17 -3 -4 -17 13
-22 21 -14 21 2 0 10 -8 17 -17z m58 -80 c6 -13 15 -23 21 -23 12 0 8 8 -22
53 -40 57 -6 24 47 -45 30 -40 86 -113 125 -163 39 -49 111 -146 162 -215 50
-69 115 -155 144 -192 30 -37 54 -70 54 -73 0 -4 9 -19 19 -34 11 -15 23 -39
26 -54 4 -15 18 -36 31 -46 13 -10 24 -24 24 -31 0 -27 -221 173 -349 316 -40
46 -96 133 -156 246 -21 40 -89 157 -168 288 l-21 34 26 -19 c15 -11 31 -30
37 -42z"/>
<path d="M670 4875 c0 -8 9 -19 20 -25 18 -10 19 -9 8 15 -12 27 -28 33 -28
10z"/>
<path d="M140 4505 c-10 -11 -10 -22 -3 -38 25 -54 31 -75 26 -100 -5 -25 5
-52 60 -165 20 -42 116 -139 149 -152 18 -7 56 -23 83 -35 28 -13 76 -28 109
-34 32 -6 79 -20 105 -32 75 -35 212 -79 244 -79 9 0 25 -4 35 -9 37 -19 68
-30 102 -37 19 -3 40 -10 45 -14 6 -4 39 -16 75 -25 36 -9 75 -21 88 -26 12
-5 32 -13 45 -18 12 -5 36 -12 52 -16 17 -3 38 -8 48 -11 9 -3 17 -1 17 5 0 9
-50 46 -129 96 -9 6 -32 21 -51 35 -19 14 -51 34 -70 44 -19 11 -37 22 -40 26
-6 7 -138 90 -144 90 -3 0 -32 19 -67 43 -34 23 -70 47 -81 53 -10 6 -29 20
-41 31 -12 12 -35 28 -52 36 -16 8 -40 27 -52 41 -13 14 -29 26 -37 26 -19 0
-83 36 -116 65 -14 12 -56 39 -95 59 -38 21 -84 53 -102 72 -20 21 -41 34 -57
34 -13 0 -38 11 -54 25 -34 28 -73 32 -92 10z m646 -426 c19 -11 38 -18 44
-14 5 3 20 1 32 -6 37 -19 270 -174 309 -205 20 -16 45 -35 55 -42 17 -11 14
-12 -16 -7 -56 9 -238 75 -273 100 -18 12 -48 25 -67 28 -41 9 -60 24 -60 48
0 10 -13 30 -29 45 -16 14 -31 36 -34 50 -5 29 -3 29 39 3z"/>
<path d="M845 4040 c3 -5 11 -10 16 -10 6 0 7 5 4 10 -3 6 -11 10 -16 10 -6 0
-7 -4 -4 -10z"/>
<path d="M1977 4103 c-4 -3 -7 -55 -7 -115 l0 -108 80 0 80 0 0 115 0 115 -73
0 c-41 0 -77 -3 -80 -7z"/>
<path d="M2370 4106 c0 -7 81 -150 107 -188 l26 -38 88 0 89 0 0 115 0 115
-155 0 c-85 0 -155 -2 -155 -4z"/>
<path d="M2890 4026 c0 -46 -3 -98 -6 -115 l-6 -31 347 0 348 0 -7 31 c-3 17
-6 49 -6 70 l0 39 -250 0 -250 0 0 45 0 45 -85 0 -85 0 0 -84z"/>
<path d="M3810 4092 c0 -9 11 -60 24 -112 l24 -95 94 -3 95 -3 21 73 c11 40
24 92 27 116 l7 42 -146 0 c-133 0 -146 -2 -146 -18z"/>
<path d="M4364 4088 c3 -13 15 -65 27 -115 l21 -93 98 0 97 0 13 63 c7 34 18
86 25 115 l13 52 -150 0 -150 0 6 -22z"/>
<path d="M5213 4078 c-6 -18 -25 -66 -42 -107 -17 -40 -31 -77 -31 -82 0 -15
180 -11 184 4 2 6 19 54 36 105 l33 92 185 -2 185 -3 24 -65 c13 -36 31 -82
40 -102 l16 -38 94 0 93 0 -16 38 c-9 20 -23 54 -31 75 -7 22 -23 56 -33 78
l-20 39 -354 0 -353 0 -10 -32z"/>
<path d="M6173 4078 c20 -53 103 -135 170 -168 168 -82 417 -53 575 66 29 23
32 30 32 80 l0 54 -84 0 c-67 0 -85 -3 -90 -16 -3 -8 -36 -29 -73 -46 -128
-58 -235 -48 -325 31 -34 30 -39 31 -126 31 l-90 0 11 -32z"/>
<path d="M7120 3995 l0 -115 340 0 340 0 0 70 0 70 -255 0 -255 0 0 45 0 45
-85 0 -85 0 0 -115z"/>
<path d="M205 3782 c-11 -11 -5 -38 18 -77 36 -65 98 -145 112 -145 7 0 18 -7
25 -15 7 -8 19 -15 26 -15 8 0 31 -11 52 -24 38 -25 129 -40 227 -39 584 10
755 16 744 29 -6 8 -22 14 -35 14 -12 0 -25 4 -28 9 -3 5 -23 12 -43 15 -69
12 -138 28 -153 36 -9 4 -40 11 -70 15 -30 4 -59 11 -65 15 -5 4 -29 10 -53
14 -24 3 -51 10 -60 15 -22 11 -78 28 -122 36 -19 4 -54 13 -78 21 -23 8 -57
14 -75 14 -18 0 -57 9 -87 20 -30 11 -77 23 -105 26 -27 4 -59 13 -70 19 -21
13 -150 27 -160 17z m706 -197 c77 -4 340 -62 356 -78 3 -4 -58 -7 -136 -7
-184 0 -259 17 -297 68 -15 19 -23 32 -17 29 6 -4 49 -9 94 -12z"/>
<path d="M4372 3560 c-18 -11 -40 -36 -49 -55 -15 -31 -15 -42 -4 -83 10 -38
10 -47 -1 -51 -7 -2 -32 -23 -55 -46 -40 -39 -43 -46 -43 -95 0 -46 4 -56 34
-86 31 -31 39 -34 94 -34 50 0 66 4 90 25 17 14 33 25 36 25 4 0 18 -12 31
-27 23 -27 23 -27 44 -9 l20 18 -24 32 -24 32 24 29 c30 37 31 52 5 60 -15 5
-26 -1 -41 -20 -17 -21 -24 -23 -36 -14 -16 14 -67 98 -62 103 2 2 19 11 37
20 37 19 72 69 72 103 0 31 -49 82 -85 88 -20 4 -41 -1 -63 -15z m83 -60 c16
-18 17 -21 1 -45 -9 -13 -28 -32 -42 -42 -22 -14 -27 -14 -35 -2 -14 23 -10
71 8 91 21 23 45 23 68 -2z m-60 -221 c51 -71 52 -75 13 -99 -44 -27 -70 -25
-107 6 -47 39 -39 98 17 128 15 9 30 15 34 16 3 0 23 -23 43 -51z"/>
<path d="M7555 3565 c-46 -16 -84 -56 -86 -88 -4 -76 14 -98 121 -152 117 -59
133 -90 74 -146 -20 -19 -36 -23 -79 -23 -65 0 -105 25 -119 73 -7 25 -14 31
-30 29 -17 -2 -21 -10 -20 -41 2 -69 61 -107 164 -107 109 0 170 45 170 125 0
58 -29 91 -109 128 -95 43 -121 63 -121 96 0 92 188 92 207 1 6 -31 11 -34 37
-24 30 12 14 71 -28 105 -21 18 -90 39 -123 39 -10 -1 -36 -7 -58 -15z"/>
<path d="M7975 3566 c-53 -20 -85 -58 -85 -102 0 -63 22 -89 116 -135 47 -23
93 -53 101 -66 15 -22 15 -27 0 -58 -40 -84 -217 -59 -217 30 0 23 -4 26 -27
23 -25 -3 -28 -7 -27 -36 4 -74 60 -112 169 -112 73 0 112 15 143 55 31 39 36
78 17 119 -14 29 -34 44 -112 83 -52 27 -99 56 -105 66 -15 29 -1 65 32 82 63
33 141 9 166 -51 12 -29 18 -34 37 -28 31 9 30 8 17 49 -24 72 -137 113 -225
81z"/>
<path d="M1666 3562 c-4 -7 -96 -435 -96 -448 0 -3 12 -4 27 -2 26 3 29 8 51
106 l24 102 118 0 118 0 -19 -87 c-10 -48 -19 -95 -19 -105 0 -24 47 -25 54 0
10 31 86 407 86 425 0 11 -8 17 -23 17 -22 0 -26 -9 -48 -97 l-24 -98 -109 -3
c-60 -1 -113 1 -117 5 -4 4 1 46 11 93 11 47 20 88 20 93 0 9 -47 9 -54 -1z"/>
<path d="M2112 3518 c-60 -285 -74 -343 -82 -353 -5 -6 -7 -21 -3 -33 5 -22 9
-22 174 -22 96 0 169 4 169 9 0 5 3 16 6 25 5 14 -10 16 -135 16 -160 0 -149
-8 -128 95 l13 60 114 6 c63 4 123 7 133 8 10 0 17 9 17 21 0 19 -7 20 -125
20 -94 0 -125 3 -125 13 1 6 6 39 13 72 l13 60 134 5 c131 5 135 6 138 28 l3
22 -159 0 -159 0 -11 -52z"/>
<path d="M2540 3348 c-69 -122 -126 -225 -128 -230 -2 -4 10 -8 26 -8 27 0 34
8 67 65 l36 65 94 0 93 0 6 -27 c3 -16 8 -45 12 -65 5 -31 11 -38 28 -38 13 0
25 2 28 5 3 3 -55 374 -71 453 -1 1 -16 2 -33 2 -32 0 -35 -5 -158 -222z m164
69 c4 -37 9 -81 13 -97 l6 -30 -77 0 -76 0 58 109 c31 60 60 104 63 98 4 -7 9
-43 13 -80z"/>
<path d="M2940 3463 c-12 -60 -33 -157 -46 -217 -13 -60 -24 -115 -24 -122 0
-11 29 -14 145 -14 81 0 145 4 145 9 0 5 3 16 6 25 5 14 -8 16 -110 16 -91 0
-116 3 -116 14 0 11 60 312 75 374 5 19 1 22 -24 22 -28 0 -29 -1 -51 -107z"/>
<path d="M3237 3563 c-4 -3 -7 -15 -7 -25 0 -16 9 -18 70 -18 39 0 70 -4 70
-9 0 -6 -18 -96 -40 -201 -22 -105 -40 -193 -40 -196 0 -3 12 -4 27 -2 30 3
31 6 61 153 12 55 28 135 37 178 l16 77 74 0 c70 0 73 1 77 25 l5 25 -172 0
c-94 0 -175 -3 -178 -7z"/>
<path d="M3655 3558 c-12 -34 -92 -438 -87 -443 3 -3 15 -5 27 -5 17 0 24 8
29 33 3 17 13 65 22 105 l16 72 119 0 c119 0 119 0 114 -22 -44 -190 -43 -188
-11 -188 30 0 26 -12 80 248 l43 212 -27 0 c-26 0 -27 -4 -49 -100 l-22 -100
-113 0 c-62 0 -115 3 -118 6 -3 3 3 44 13 92 10 47 19 90 19 94 0 13 -50 9
-55 -4z"/>
<path d="M4855 3413 c4 -87 10 -189 14 -228 6 -69 6 -70 34 -70 25 0 33 8 64
65 74 138 109 207 129 254 l22 50 6 -60 c3 -32 8 -117 12 -187 l6 -128 30 3
c28 3 37 16 144 228 63 123 114 226 114 227 0 2 -12 3 -27 3 -26 0 -34 -13
-118 -181 l-90 -182 -8 119 c-15 246 -15 244 -46 244 -29 0 -44 -23 -161 -257
l-57 -113 -6 97 c-4 54 -7 123 -7 154 0 92 -8 119 -37 119 l-25 0 7 -157z"/>
<path d="M5475 3548 c-33 -144 -85 -406 -85 -425 0 -10 40 -13 165 -13 163 0
166 0 174 23 l8 22 -138 3 c-159 3 -149 -5 -127 104 l12 58 96 0 c130 0 170 8
170 31 0 18 -10 19 -126 19 l-126 0 6 33 c3 17 8 51 12 75 l7 42 132 0 c135 0
145 3 145 41 0 5 -69 9 -160 9 -157 0 -160 0 -165 -22z"/>
<path d="M5895 3548 c-2 -13 -12 -54 -20 -93 -9 -38 -27 -124 -40 -189 -14
-65 -27 -127 -31 -138 -5 -18 2 -18 143 -16 145 3 148 3 151 26 3 22 2 22
-106 22 -60 0 -111 2 -114 5 -3 3 12 90 33 193 22 103 39 193 39 200 0 6 -11
12 -25 12 -17 0 -26 -7 -30 -22z"/>
<path d="M6207 3348 c-26 -123 -47 -226 -47 -230 0 -11 290 -10 290 1 0 5 3
16 6 25 5 14 -8 16 -110 16 -76 0 -116 4 -116 11 0 10 65 330 76 375 5 21 3
24 -23 24 l-29 0 -47 -222z"/>
<path d="M6606 3543 c-3 -15 -21 -102 -40 -193 -55 -262 -53 -242 -20 -238
l28 3 34 175 c42 214 42 213 56 176 6 -16 40 -101 76 -190 64 -159 65 -161 98
-164 17 -2 32 -2 32 0 0 2 20 102 45 222 25 121 45 223 45 228 0 16 -49 8 -54
-9 -7 -22 -76 -353 -76 -368 -1 -5 -16 31 -34 80 -18 50 -53 137 -78 195 -42
98 -47 105 -76 108 -26 3 -31 -1 -36 -25z"/>
<path d="M7067 3563 c-3 -5 -15 -57 -27 -118 -12 -60 -33 -157 -46 -215 -13
-58 -20 -108 -15 -113 4 -4 81 -6 172 -5 162 3 164 3 167 26 3 22 3 22 -138
22 l-142 0 5 23 c3 12 11 48 18 80 l12 57 101 1 c123 2 160 9 164 32 3 15 -8
17 -122 17 -69 0 -127 3 -129 8 -2 4 3 37 11 75 l15 67 133 0 c75 0 134 4 134
9 0 5 3 16 6 25 5 14 -12 16 -154 16 -89 0 -163 -3 -165 -7z"/>
<path d="M818 3278 c-7 -4 -38 -8 -68 -7 -109 2 -131 -1 -136 -16 -6 -15 80
-145 96 -145 5 0 35 -16 67 -35 58 -35 59 -35 177 -35 154 0 204 16 391 129
94 56 140 96 129 112 -7 13 -637 10 -656 -3z m517 -28 c-3 -5 0 -10 8 -10 10
0 13 -7 10 -20 -8 -29 -126 -94 -160 -87 -15 3 -37 -2 -49 -10 -22 -14 -24
-13 -53 34 -41 65 -40 77 12 90 56 14 240 16 232 3z"/>
<path d="M1676 3051 c-3 -4 -29 -11 -57 -14 -29 -4 -57 -11 -63 -17 -5 -5 -26
-10 -45 -10 -46 -1 -149 -23 -178 -38 -12 -7 -34 -12 -50 -12 -15 -1 -39 -7
-53 -15 -14 -8 -39 -14 -56 -15 -113 -1 -123 -53 -29 -147 43 -43 43 -43 118
-43 114 0 165 21 259 106 45 41 90 86 101 101 11 15 37 40 58 55 42 30 51 58
20 58 -11 0 -22 -4 -25 -9z m-46 -50 c0 -4 -18 -28 -40 -53 -27 -31 -55 -51
-87 -61 -46 -16 -49 -16 -65 4 -24 28 -23 49 3 49 14 0 19 5 16 14 -7 16 80
46 161 55 6 0 12 -3 12 -8z"/>
<path d="M1870 2863 c-112 -52 -160 -71 -200 -83 -25 -8 -52 -19 -60 -26 -8
-7 -31 -19 -50 -28 -65 -31 -90 -47 -90 -59 1 -36 16 -58 54 -77 35 -17 58
-20 129 -17 99 4 109 10 165 97 19 30 46 65 59 77 12 12 23 30 23 41 0 10 7
27 15 38 18 24 19 54 3 54 -7 0 -29 -8 -48 -17z m-13 -85 c-41 -67 -60 -87
-86 -90 -36 -5 -48 23 -28 65 16 33 41 48 117 70 24 7 24 0 -3 -45z"/>
<path d="M2106 2745 c-28 -30 -55 -55 -60 -55 -16 0 -106 -100 -112 -127 -14
-55 78 -83 160 -49 37 16 76 71 76 109 0 14 5 29 10 32 6 3 10 37 10 76 0 88
-14 90 -84 14z m54 6 c0 -5 -6 -11 -12 -14 -10 -3 -10 -7 1 -20 9 -12 11 -30
7 -59 -10 -65 -18 -73 -52 -56 -25 12 -29 19 -26 47 3 43 82 140 82 102z"/>
<path d="M2418 2747 c-8 -7 -30 -33 -48 -59 -17 -25 -41 -48 -51 -51 -10 -3
-19 -13 -19 -23 0 -10 -11 -30 -25 -44 -13 -14 -28 -40 -31 -58 l-6 -32 54 0
c66 0 105 17 113 49 4 14 15 43 26 65 20 41 27 150 10 160 -4 3 -15 0 -23 -7z
m-9 -149 l-12 -28 -13 26 c-18 35 -18 40 9 83 l22 36 3 -44 c2 -24 -2 -57 -9
-73z"/>
</g>
</svg>
